<?xml version="1.0" encoding="utf-8" standalone="no"?>
<!DOCTYPE svg PUBLIC "-//W3C//DTD SVG 1.1//EN"
  "http://www.w3.org/Graphics/SVG/1.1/DTD/svg11.dtd">
<svg xmlns:xlink="http://www.w3.org/1999/xlink" width="720pt" height="72pt" viewBox="0 0 720 72" xmlns="http://www.w3.org/2000/svg" version="1.1">
 <metadata>
  <rdf:RDF xmlns:dc="http://purl.org/dc/elements/1.1/" xmlns:cc="http://creativecommons.org/ns#" xmlns:rdf="http://www.w3.org/1999/02/22-rdf-syntax-ns#">
   <cc:Work>
    <dc:type rdf:resource="http://purl.org/dc/dcmitype/StillImage"/>
    <dc:date>2025-06-12T11:31:36.014859</dc:date>
    <dc:format>image/svg+xml</dc:format>
    <dc:creator>
     <cc:Agent>
      <dc:title>Matplotlib v3.10.3, https://matplotlib.org/</dc:title>
     </cc:Agent>
    </dc:creator>
   </cc:Work>
  </rdf:RDF>
 </metadata>
 <defs>
  <style type="text/css">*{stroke-linejoin: round; stroke-linecap: butt}</style>
 </defs>
 <g id="figure_1">
  <g id="patch_1">
   <path d="M 0 72 
L 720 72 
L 720 0 
L 0 0 
z
" style="fill: #ffffff"/>
  </g>
  <g id="axes_1">
   <g id="line2d_1">
    <path d="M 85.106573 24.495595 
L 83.661618 24.326297 
L 80.760682 24.006729 
L 75.709085 23.251876 
L 69.986536 22.097788 
L 63.544647 20.820012 
L 58.495701 20.046752 
L 54.14152 19.589299 
L 49.042789 19.284006 
L 43.206122 19.177072 
L 37.369633 19.295365 
L 31.541945 19.636344 
L 26.458376 20.134836 
L 22.847155 20.65373 
L 19.990322 21.249766 
L 17.192956 22.078876 
L 15.855024 22.657562 
L 15.234958 23.039858 
L 14.690631 23.522832 
L 14.338636 24.153991 
L 14.344347 24.869374 
L 14.69103 25.501623 
L 15.234717 25.983631 
L 16.51932 26.670011 
L 18.579505 27.405366 
L 21.415887 28.091498 
L 25.012335 28.703167 
L 29.362767 29.194849 
L 35.184646 29.624303 
L 41.018616 29.831851 
L 46.856187 29.806332 
L 52.68747 29.535653 
L 57.773635 29.066188 
L 62.108964 28.455497 
L 67.129761 27.516144 
L 77.151159 25.534377 
L 82.210631 24.834522 
L 85.111364 24.534602 
L 85.111364 24.534602 
" clip-path="url(#p1d6d4560ac)" style="fill: none; stroke: #000000; stroke-width: 0.5; stroke-linecap: square"/>
   </g>
  </g>
  <g id="axes_2">
   <g id="line2d_2">
    <path d="M 173.761364 24.89434 
L 166.59034 24.207446 
L 152.997726 22.59632 
L 144.400165 21.694811 
L 137.934457 21.216124 
L 132.175582 20.99987 
L 126.412705 21.014069 
L 120.655366 21.266366 
L 115.630677 21.690679 
L 110.626693 22.312807 
L 107.081989 22.948494 
L 104.991398 23.494477 
L 103.651242 24.016173 
L 103.075695 24.441806 
L 102.988636 25.109124 
L 103.507375 25.585719 
L 104.85452 26.089838 
L 106.968573 26.532684 
L 111.967983 27.190472 
L 117.708161 27.701288 
L 123.464295 27.981197 
L 129.226904 28.046281 
L 134.988278 27.908685 
L 141.46091 27.534793 
L 150.072861 26.782725 
L 168.720433 25.03058 
L 173.039721 24.882781 
L 173.760125 24.886311 
L 173.760125 24.886311 
" clip-path="url(#p522699ad52)" style="fill: none; stroke: #000000; stroke-width: 0.5; stroke-linecap: square"/>
   </g>
  </g>
  <g id="axes_3">
   <g id="line2d_3">
    <path d="M 262.410911 26.393423 
L 257.446039 25.432935 
L 249.649768 23.894779 
L 243.939049 23.006661 
L 237.483512 22.232563 
L 231.005435 21.677229 
L 223.791217 21.29657 
L 217.290696 21.169765 
L 211.512889 21.295035 
L 206.468203 21.643305 
L 202.165027 22.161056 
L 198.612449 22.810697 
L 195.822729 23.560361 
L 193.807491 24.352319 
L 192.559839 25.07715 
L 192.007213 25.539107 
L 191.638636 26.149361 
L 191.793314 26.808812 
L 192.421305 27.141559 
L 194.548906 27.543882 
L 197.429823 27.763899 
L 201.763099 27.857297 
L 209.708743 27.718579 
L 223.426979 27.238977 
L 255.193184 26.10147 
L 260.968375 26.320586 
L 262.411364 26.39521 
L 262.411364 26.39521 
" clip-path="url(#p2fa28d07f2)" style="fill: none; stroke: #000000; stroke-width: 0.5; stroke-linecap: square"/>
   </g>
  </g>
  <g id="axes_4">
   <g id="line2d_4">
    <path d="M 351.061364 28.009745 
L 338.480377 23.848573 
L 330.647133 21.786457 
L 326.317629 20.905413 
L 321.222933 20.122039 
L 316.097781 19.57079 
L 310.219306 19.18501 
L 305.066264 19.051386 
L 299.912489 19.138792 
L 296.241867 19.421541 
L 293.328232 19.851145 
L 290.46083 20.521285 
L 288.367735 21.225948 
L 286.356849 22.138215 
L 284.467994 23.28124 
L 282.743742 24.659658 
L 281.22667 26.263457 
L 280.365274 27.451151 
L 280.288636 28.166618 
L 280.662758 28.785974 
L 281.269484 29.195745 
L 282.672116 29.627623 
L 284.864529 29.893621 
L 287.80825 29.974411 
L 291.485808 29.800121 
L 309.849164 28.537997 
L 316.476487 28.610636 
L 333.410617 28.916109 
L 340.035201 28.713105 
L 348.121839 28.236108 
L 351.060181 28.02704 
L 351.060181 28.02704 
" clip-path="url(#pd342de19db)" style="fill: none; stroke: #000000; stroke-width: 0.5; stroke-linecap: square"/>
   </g>
  </g>
  <g id="axes_5">
   <g id="line2d_5">
    <path d="M 439.711364 25.520602 
L 435.400611 25.328915 
L 429.669885 24.817973 
L 419.672997 23.61362 
L 409.663405 22.521324 
L 401.778482 21.875724 
L 395.314393 21.539623 
L 389.561597 21.450697 
L 384.528898 21.577022 
L 379.507465 21.932326 
L 375.947142 22.431395 
L 373.144134 23.07458 
L 371.107391 23.781006 
L 369.835288 24.448453 
L 369.269169 24.887729 
L 368.938636 25.504001 
L 369.440207 25.964443 
L 370.783146 26.474587 
L 372.891237 26.926149 
L 375.745996 27.278265 
L 379.334866 27.499812 
L 385.08788 27.577553 
L 392.997896 27.434896 
L 405.214884 26.942946 
L 439.708838 25.523859 
L 439.708838 25.523859 
" clip-path="url(#p9b67ddab38)" style="fill: none; stroke: #000000; stroke-width: 0.5; stroke-linecap: square"/>
   </g>
  </g>
  <g id="axes_6">
   <g id="line2d_6">
    <path d="M 528.357841 25.765429 
L 525.535358 24.989421 
L 518.391371 23.396455 
L 506.21131 20.851988 
L 499.725938 19.697753 
L 494.651815 18.989236 
L 489.550984 18.511934 
L 485.163544 18.329243 
L 480.772848 18.389187 
L 477.122126 18.640387 
L 472.763989 19.177678 
L 468.444254 19.96544 
L 465.613589 20.70942 
L 462.861441 21.705248 
L 460.859621 22.606218 
L 459.592689 23.337219 
L 458.453144 24.251582 
L 457.967725 24.797568 
L 457.588636 25.420054 
L 457.692903 26.108227 
L 458.242615 26.580787 
L 459.547603 27.239407 
L 461.626074 27.942145 
L 465.187534 28.781156 
L 468.793145 29.40606 
L 473.878342 30.029161 
L 478.985038 30.442182 
L 484.835214 30.685008 
L 489.226496 30.674811 
L 492.879336 30.459438 
L 497.238114 29.92754 
L 502.287257 29.058656 
L 515.965696 26.55605 
L 520.324922 26.025925 
L 524.705047 25.714597 
L 527.631661 25.705751 
L 528.361364 25.763144 
L 528.361364 25.763144 
" clip-path="url(#p09296e4856)" style="fill: none; stroke: #000000; stroke-width: 0.5; stroke-linecap: square"/>
   </g>
  </g>
  <g id="axes_7">
   <g id="line2d_7">
    <path d="M 617.009747 26.318874 
L 615.064858 25.340689 
L 613.031006 24.562445 
L 610.252359 23.719181 
L 605.319008 22.498548 
L 600.336338 21.499043 
L 596.026031 20.870456 
L 591.68979 20.455752 
L 586.613813 20.207291 
L 580.80575 20.173897 
L 574.274769 20.382225 
L 567.754025 20.804011 
L 561.975987 21.393579 
L 557.669301 22.047123 
L 553.397055 22.897377 
L 550.585022 23.621185 
L 548.534179 24.349893 
L 547.257289 25.037001 
L 546.674306 25.467896 
L 546.238636 26.033881 
L 546.392534 26.689679 
L 546.959376 27.138304 
L 548.299134 27.683339 
L 550.437893 28.089704 
L 554.043493 28.508083 
L 558.391678 28.768106 
L 564.199072 28.867964 
L 574.363375 28.759612 
L 601.22237 28.243831 
L 607.746605 27.881758 
L 612.082463 27.463503 
L 614.948534 26.999214 
L 616.343824 26.601605 
L 617.011364 26.31661 
L 617.011364 26.31661 
" clip-path="url(#p1b50d34734)" style="fill: none; stroke: #000000; stroke-width: 0.5; stroke-linecap: square"/>
   </g>
  </g>
  <g id="axes_8">
   <g id="line2d_8">
    <path d="M 705.661364 25.483685 
L 698.549213 24.371773 
L 690.694216 23.371208 
L 681.38447 22.419748 
L 672.77206 21.750798 
L 664.864035 21.344541 
L 658.386728 21.216993 
L 653.348838 21.314088 
L 648.320739 21.639716 
L 644.030639 22.136811 
L 640.486171 22.757859 
L 638.399748 23.312654 
L 637.052656 23.818845 
L 635.783323 24.494678 
L 635.215628 24.933171 
L 634.888636 25.540883 
L 635.362874 26.052977 
L 636.705426 26.564515 
L 638.819188 26.999103 
L 642.395938 27.397459 
L 646.707541 27.648753 
L 653.904468 27.801666 
L 662.542714 27.754814 
L 673.336925 27.467004 
L 681.244177 27.047471 
L 689.854027 26.345693 
L 698.465931 25.673187 
L 703.501497 25.492418 
L 705.661083 25.482437 
L 705.661083 25.482437 
" clip-path="url(#pc96a82d48f)" style="fill: none; stroke: #000000; stroke-width: 0.5; stroke-linecap: square"/>
   </g>
  </g>
  <g id="axes_9">
   <g id="line2d_9">
    <path d="M 85.11107 50.019991 
L 79.45111 48.798534 
L 73.040265 47.643616 
L 65.878178 46.598992 
L 57.968035 45.694324 
L 49.31433 44.951085 
L 40.644134 44.436768 
L 35.578821 44.333823 
L 31.237787 44.444456 
L 27.630179 44.727009 
L 24.045363 45.219285 
L 21.206722 45.786394 
L 19.114394 46.364581 
L 17.099753 47.167316 
L 15.873763 47.933212 
L 14.761383 48.85622 
L 14.338636 49.438015 
L 14.347021 50.109883 
L 14.961535 50.472275 
L 16.394513 50.639116 
L 20.734978 50.508826 
L 30.129934 49.986635 
L 40.248383 49.441642 
L 48.207888 49.251257 
L 57.617294 49.260126 
L 68.471399 49.514583 
L 85.111364 50.018048 
L 85.111364 50.018048 
" clip-path="url(#pcd5848d14c)" style="fill: none; stroke: #000000; stroke-width: 0.5; stroke-linecap: square"/>
   </g>
  </g>
  <g id="axes_10">
   <g id="line2d_10">
    <path d="M 173.761364 48.23785 
L 169.383236 47.500452 
L 163.591141 46.277414 
L 153.521719 43.840033 
L 146.30878 42.187039 
L 141.220504 41.217632 
L 136.82654 40.581956 
L 132.405346 40.179581 
L 128.707665 40.060784 
L 125.010019 40.174718 
L 121.32826 40.535781 
L 117.6741 41.114058 
L 114.053787 41.876535 
L 111.196339 42.647283 
L 108.404337 43.627462 
L 106.380307 44.537538 
L 105.100215 45.277873 
L 103.947979 46.202258 
L 103.453136 46.751176 
L 103.105074 47.398634 
L 102.988636 48.124514 
L 103.170521 48.836966 
L 103.548927 49.468934 
L 104.675149 50.419662 
L 105.978589 51.117483 
L 108.038253 51.943446 
L 110.866219 52.814964 
L 113.749442 53.483007 
L 117.39649 54.10483 
L 121.805931 54.620793 
L 126.237657 54.882994 
L 129.937263 54.88906 
L 133.630191 54.669009 
L 138.039575 54.151737 
L 143.15141 53.315213 
L 151.137809 51.741114 
L 164.1962 49.116247 
L 168.589769 48.479397 
L 171.540007 48.245602 
L 173.759559 48.221414 
L 173.759559 48.221414 
" clip-path="url(#pf0bee703f3)" style="fill: none; stroke: #000000; stroke-width: 0.5; stroke-linecap: square"/>
   </g>
  </g>
  <g id="axes_11">
   <g id="line2d_11">
    <path d="M 262.408297 47.495116 
L 258.077828 47.217263 
L 252.326112 46.586418 
L 229.349901 43.804266 
L 223.577479 43.405363 
L 218.517026 43.249168 
L 213.454695 43.312707 
L 208.400381 43.606007 
L 202.641816 44.170286 
L 198.348993 44.802929 
L 194.813392 45.560421 
L 193.434992 45.996801 
L 192.147089 46.648806 
L 191.638636 47.143283 
L 191.66284 47.84033 
L 192.137929 48.370078 
L 193.434723 48.99996 
L 195.521339 49.592267 
L 199.066293 50.305676 
L 203.361948 50.91983 
L 208.402332 51.395757 
L 213.458163 51.662193 
L 218.520615 51.726313 
L 223.581647 51.589899 
L 229.354636 51.200396 
L 235.829598 50.530051 
L 245.872463 49.233015 
L 255.203744 48.075682 
L 260.967463 47.566777 
L 262.411364 47.478108 
L 262.411364 47.478108 
" clip-path="url(#pf71506648e)" style="fill: none; stroke: #000000; stroke-width: 0.5; stroke-linecap: square"/>
   </g>
  </g>
  <g id="axes_12">
   <g id="line2d_12">
    <path d="M 351.061092 48.962233 
L 337.897946 46.856471 
L 330.608214 45.551859 
L 319.692438 43.494503 
L 307.982177 41.688412 
L 303.560599 41.252748 
L 299.861382 41.099227 
L 296.159186 41.145507 
L 293.208467 41.394815 
L 291.026251 41.807989 
L 288.888272 42.410423 
L 286.802001 43.172521 
L 284.807299 44.147337 
L 283.565119 44.952651 
L 282.423653 45.89519 
L 281.412955 46.976532 
L 280.622385 48.223425 
L 280.381335 48.921389 
L 280.288636 49.653769 
L 280.445632 50.372032 
L 280.840723 50.992404 
L 281.999326 51.90518 
L 283.305926 52.600136 
L 284.689848 53.123723 
L 286.127394 53.476508 
L 288.328611 53.768864 
L 291.287876 53.879789 
L 294.988659 53.767785 
L 300.156537 53.362623 
L 334.069937 50.14099 
L 348.845306 49.104094 
L 351.061364 48.944949 
L 351.061364 48.944949 
" clip-path="url(#p5370070cd4)" style="fill: none; stroke: #000000; stroke-width: 0.5; stroke-linecap: square"/>
   </g>
  </g>
  <g id="axes_13">
   <g id="line2d_13">
    <path d="M 439.710716 50.840678 
L 429.927076 47.054193 
L 424.96175 45.36392 
L 419.207487 43.683108 
L 413.407422 42.168133 
L 409.012164 41.222906 
L 405.314597 40.619524 
L 401.590172 40.214814 
L 397.848656 40.02511 
L 394.102209 40.033259 
L 389.613023 40.274052 
L 385.893674 40.719418 
L 382.956041 41.310643 
L 380.080847 42.154371 
L 377.281388 43.223709 
L 375.2525 44.190216 
L 373.341424 45.371258 
L 371.604944 46.796136 
L 370.568613 47.877744 
L 369.687865 49.087457 
L 369.082319 50.45277 
L 368.938636 51.186365 
L 369.04339 51.923413 
L 369.342931 52.607276 
L 369.784229 53.210262 
L 370.347878 53.700533 
L 371.684595 54.364653 
L 373.136444 54.728356 
L 375.374063 54.931122 
L 379.120195 54.942461 
L 385.858351 54.658924 
L 427.753992 52.250642 
L 437.471788 51.569843 
L 439.711364 51.374126 
L 439.711364 51.374126 
" clip-path="url(#p361efc82bd)" style="fill: none; stroke: #000000; stroke-width: 0.5; stroke-linecap: square"/>
   </g>
  </g>
  <g id="axes_14">
   <g id="line2d_14">
    <path d="M 528.361364 50.443794 
L 521.949189 49.296903 
L 511.930856 47.776379 
L 494.012829 45.259557 
L 488.245712 44.746411 
L 483.18399 44.534281 
L 478.117878 44.552146 
L 473.780817 44.767433 
L 469.460638 45.204289 
L 465.887599 45.775407 
L 463.067558 46.427274 
L 461.013717 47.128562 
L 459.710056 47.755754 
L 458.538962 48.601087 
L 458.039572 49.123296 
L 457.635811 49.720892 
L 457.588636 50.380838 
L 458.293308 50.449989 
L 460.436938 50.115117 
L 464.016954 49.589698 
L 468.341101 49.191556 
L 475.567402 48.784961 
L 482.802676 48.597005 
L 490.040272 48.635088 
L 497.99692 48.915684 
L 521.850674 50.143846 
L 528.357093 50.459392 
L 528.357093 50.459392 
" clip-path="url(#p0bc956b9ae)" style="fill: none; stroke: #000000; stroke-width: 0.5; stroke-linecap: square"/>
   </g>
  </g>
  <g id="axes_15">
   <g id="line2d_15">
    <path d="M 617.011364 50.613054 
L 614.82506 50.348035 
L 592.413201 46.355073 
L 572.192417 42.631075 
L 568.547239 42.193372 
L 566.348515 42.066881 
L 563.414071 42.175985 
L 560.493634 42.485114 
L 557.610612 43.041924 
L 555.493741 43.650226 
L 553.435564 44.434148 
L 551.457315 45.401824 
L 549.58845 46.566033 
L 547.888927 47.964511 
L 546.904207 49.052585 
L 546.497569 49.662822 
L 546.238636 50.345482 
L 546.282271 51.064871 
L 546.724909 51.629923 
L 547.381848 51.949147 
L 548.816315 52.254514 
L 552.469119 52.620988 
L 556.87063 52.815411 
L 564.94791 52.906057 
L 575.962636 52.798028 
L 591.379245 52.411674 
L 604.586507 51.87159 
L 611.913531 51.384513 
L 615.55992 50.95755 
L 617.009399 50.720869 
L 617.009399 50.720869 
" clip-path="url(#p245b92f038)" style="fill: none; stroke: #000000; stroke-width: 0.5; stroke-linecap: square"/>
   </g>
  </g>
  <g id="axes_16">
   <g id="line2d_16">
    <path d="M 705.661364 49.731956 
L 691.363633 47.357525 
L 680.607105 45.790541 
L 673.410822 44.93802 
L 666.912337 44.386982 
L 661.1212 44.12456 
L 656.048812 44.105832 
L 651.704977 44.288013 
L 648.098416 44.632124 
L 644.519753 45.195318 
L 641.69216 45.831211 
L 639.612999 46.464587 
L 637.60996 47.306347 
L 636.364206 48.045032 
L 635.257916 48.975319 
L 634.888636 49.588865 
L 635.017735 50.272174 
L 635.586735 50.703351 
L 636.28447 50.877079 
L 637.730671 50.829192 
L 639.868023 50.437877 
L 642.719616 49.921397 
L 647.74826 49.256669 
L 652.083012 48.922294 
L 659.324881 48.658284 
L 668.744091 48.497551 
L 676.71441 48.620304 
L 685.402828 48.984496 
L 705.660833 50.140248 
L 705.660833 50.140248 
" clip-path="url(#pc25881a9ef)" style="fill: none; stroke: #000000; stroke-width: 0.5; stroke-linecap: square"/>
   </g>
  </g>
 </g>
 <defs>
  <clipPath id="p1d6d4560ac">
   <rect x="10.8" y="18.643426" width="77.85" height="11.740209"/>
  </clipPath>
  <clipPath id="p522699ad52">
   <rect x="99.45" y="20.624052" width="77.85" height="7.778957"/>
  </clipPath>
  <clipPath id="p2fa28d07f2">
   <rect x="188.1" y="20.835388" width="77.85" height="7.356285"/>
  </clipPath>
  <clipPath id="pd342de19db">
   <rect x="276.75" y="18.502647" width="77.85" height="12.021768"/>
  </clipPath>
  <clipPath id="p9b67ddab38">
   <rect x="365.4" y="21.142503" width="77.85" height="6.742056"/>
  </clipPath>
  <clipPath id="p09296e4856">
   <rect x="454.05" y="17.701867" width="77.85" height="13.623327"/>
  </clipPath>
  <clipPath id="p1b50d34734">
   <rect x="542.7" y="19.723654" width="77.85" height="9.579753"/>
  </clipPath>
  <clipPath id="pc96a82d48f">
   <rect x="631.35" y="20.88734" width="77.85" height="7.252382"/>
  </clipPath>
  <clipPath id="pcd5848d14c">
   <rect x="10.8" y="44.018558" width="77.85" height="6.935822"/>
  </clipPath>
  <clipPath id="pf0bee703f3">
   <rect x="99.45" y="39.318216" width="77.85" height="16.336507"/>
  </clipPath>
  <clipPath id="pf71506648e">
   <rect x="188.1" y="42.819236" width="77.85" height="9.334467"/>
  </clipPath>
  <clipPath id="p5370070cd4">
   <rect x="276.75" y="40.453817" width="77.85" height="14.065305"/>
  </clipPath>
  <clipPath id="p361efc82bd">
   <rect x="365.4" y="39.258067" width="77.85" height="16.456805"/>
  </clipPath>
  <clipPath id="p0bc956b9ae">
   <rect x="454.05" y="44.216254" width="77.85" height="6.54043"/>
  </clipPath>
  <clipPath id="p245b92f038">
   <rect x="542.7" y="41.524922" width="77.85" height="11.923094"/>
  </clipPath>
  <clipPath id="pc25881a9ef">
   <rect x="631.35" y="43.747855" width="77.85" height="7.477229"/>
  </clipPath>
 </defs>
</svg>
