<?xml version="1.0" encoding="utf-8" standalone="no"?>
<!DOCTYPE svg PUBLIC "-//W3C//DTD SVG 1.1//EN"
  "http://www.w3.org/Graphics/SVG/1.1/DTD/svg11.dtd">
<svg xmlns:xlink="http://www.w3.org/1999/xlink" width="720pt" height="72pt" viewBox="0 0 720 72" xmlns="http://www.w3.org/2000/svg" version="1.1">
 <metadata>
  <rdf:RDF xmlns:dc="http://purl.org/dc/elements/1.1/" xmlns:cc="http://creativecommons.org/ns#" xmlns:rdf="http://www.w3.org/1999/02/22-rdf-syntax-ns#">
   <cc:Work>
    <dc:type rdf:resource="http://purl.org/dc/dcmitype/StillImage"/>
    <dc:date>2025-06-12T11:39:24.480744</dc:date>
    <dc:format>image/svg+xml</dc:format>
    <dc:creator>
     <cc:Agent>
      <dc:title>Matplotlib v3.10.3, https://matplotlib.org/</dc:title>
     </cc:Agent>
    </dc:creator>
   </cc:Work>
  </rdf:RDF>
 </metadata>
 <defs>
  <style type="text/css">*{stroke-linejoin: round; stroke-linecap: butt}</style>
 </defs>
 <g id="figure_1">
  <g id="patch_1">
   <path d="M 0 72 
L 720 72 
L 720 0 
L 0 0 
z
" style="fill: #ffffff"/>
  </g>
  <g id="axes_1">
   <g id="line2d_1">
    <path d="M 85.111364 27.521647 
L 79.879514 26.384674 
L 69.651762 24.646542 
L 66.646985 23.648768 
L 63.302326 22.562031 
L 60.343592 21.80249 
L 57.018136 21.153061 
L 53.429097 20.64533 
L 48.459364 20.212222 
L 43.543692 20.05961 
L 38.900967 20.16786 
L 34.665067 20.500688 
L 30.898556 21.009923 
L 26.867205 21.811236 
L 23.551316 22.697715 
L 20.419172 23.752436 
L 17.458068 24.996268 
L 15.610388 25.996865 
L 14.711414 26.700057 
L 14.375052 27.207965 
L 14.359911 27.580331 
L 14.566756 27.914326 
L 15.104232 28.270352 
L 16.171521 28.630708 
L 17.844062 28.941409 
L 20.808065 29.25144 
L 26.026864 29.558085 
L 34.614008 29.833882 
L 45.463539 29.976471 
L 56.453752 29.903429 
L 64.022781 29.637529 
L 69.104979 29.233836 
L 74.433145 28.548739 
L 80.683242 27.736216 
L 84.030792 27.526617 
L 85.111364 27.521647 
L 85.111364 27.521647 
" clip-path="url(#p6c758a18f4)" style="fill: none; stroke: #000000; stroke-width: 0.5; stroke-linecap: square"/>
   </g>
  </g>
  <g id="axes_2">
   <g id="line2d_2">
    <path d="M 173.761364 27.63137 
L 172.306354 27.283011 
L 161.782787 25.39269 
L 152.632586 23.872666 
L 143.565 22.613831 
L 136.443081 21.825467 
L 129.933546 21.302916 
L 124.16024 21.078227 
L 120.113993 21.126366 
L 116.584125 21.371813 
L 113.557365 21.79223 
L 111.005521 22.351198 
L 108.42502 23.175957 
L 106.443489 24.056334 
L 104.742461 25.07771 
L 103.665533 25.976905 
L 103.112479 26.715141 
L 102.988636 27.208764 
L 103.118995 27.607716 
L 103.454061 27.931604 
L 104.177436 28.292251 
L 105.410897 28.63824 
L 106.997638 28.863538 
L 109.583297 28.966449 
L 115.53241 28.905 
L 127.405065 28.568683 
L 154.803526 27.626159 
L 169.171175 27.490374 
L 173.761364 27.63137 
L 173.761364 27.63137 
" clip-path="url(#pfe81692e66)" style="fill: none; stroke: #000000; stroke-width: 0.5; stroke-linecap: square"/>
   </g>
  </g>
  <g id="axes_3">
   <g id="line2d_3">
    <path d="M 262.411364 28.357512 
L 262.392679 28.198093 
L 261.466343 27.877587 
L 255.425017 26.560508 
L 244.968336 24.432613 
L 236.260865 22.894144 
L 228.648443 21.80554 
L 222.272113 21.152283 
L 216.902892 20.867078 
L 213.141118 20.865354 
L 209.737926 21.042066 
L 205.904476 21.487201 
L 202.508024 22.146808 
L 199.556234 22.974191 
L 197.06734 23.910765 
L 195.053986 24.889072 
L 193.268475 26.020929 
L 192.15467 27.009365 
L 191.710602 27.673514 
L 191.644721 28.089438 
L 191.807096 28.407245 
L 192.281947 28.686854 
L 193.161332 28.898119 
L 195.118761 29.100461 
L 198.101503 29.19634 
L 201.122944 29.047348 
L 207.755857 28.391788 
L 216.773923 27.575966 
L 225.080331 27.027758 
L 231.416319 26.812332 
L 237.419208 26.812928 
L 245.644601 27.073139 
L 255.687321 27.65064 
L 261.15404 28.172949 
L 262.411364 28.357512 
L 262.411364 28.357512 
" clip-path="url(#p7f616ab895)" style="fill: none; stroke: #000000; stroke-width: 0.5; stroke-linecap: square"/>
   </g>
  </g>
  <g id="axes_4">
   <g id="line2d_4">
    <path d="M 351.061364 26.343497 
L 348.924278 25.918512 
L 343.118973 25.064244 
L 330.607472 23.482997 
L 320.797864 22.438299 
L 313.442734 21.8656 
L 306.968672 21.587096 
L 301.258053 21.584677 
L 296.234895 21.833218 
L 291.890423 22.290738 
L 288.257922 22.89417 
L 284.956132 23.681767 
L 282.637169 24.453407 
L 281.192852 25.133894 
L 280.464715 25.697262 
L 280.288636 26.098609 
L 280.394907 26.393852 
L 280.779739 26.723678 
L 281.697867 27.150826 
L 283.117932 27.568743 
L 285.172641 27.947954 
L 288.060161 28.245721 
L 292.545592 28.445051 
L 299.235536 28.475094 
L 308.680656 28.259726 
L 321.486472 27.724933 
L 351.061364 26.343497 
L 351.061364 26.343497 
" clip-path="url(#p42757ff9e4)" style="fill: none; stroke: #000000; stroke-width: 0.5; stroke-linecap: square"/>
   </g>
  </g>
  <g id="axes_5">
   <g id="line2d_5">
    <path d="M 439.711364 27.64889 
L 437.856939 27.222963 
L 432.334475 26.284997 
L 421.150303 24.663251 
L 410.588563 23.340794 
L 403.79446 22.704963 
L 397.655588 22.353618 
L 392.164389 22.254873 
L 386.417687 22.397865 
L 381.580224 22.761256 
L 378.231264 23.206958 
L 375.480008 23.768549 
L 373.291169 24.423272 
L 371.617506 25.130706 
L 370.211425 25.970462 
L 369.367266 26.704169 
L 368.960268 27.325996 
L 369.000598 27.630322 
L 369.246099 27.742259 
L 369.94745 27.741732 
L 382.340867 26.747454 
L 389.010728 26.574111 
L 400.685292 26.538622 
L 412.571595 26.687168 
L 421.859148 27.003839 
L 439.028839 27.748014 
L 439.711364 27.64889 
L 439.711364 27.64889 
" clip-path="url(#p088efe661b)" style="fill: none; stroke: #000000; stroke-width: 0.5; stroke-linecap: square"/>
   </g>
  </g>
  <g id="axes_6">
   <g id="line2d_6">
    <path d="M 528.361364 27.488167 
L 527.277307 27.032698 
L 524.408844 26.204016 
L 519.242799 25.070276 
L 507.094184 22.756035 
L 496.935909 21.030646 
L 489.808998 20.068133 
L 484.72844 19.60956 
L 480.232021 19.447302 
L 476.183139 19.567543 
L 472.506945 19.948762 
L 469.186617 20.557322 
L 466.243334 21.348248 
L 463.711297 22.268663 
L 461.618254 23.261928 
L 459.975877 24.272092 
L 458.778726 25.248786 
L 458.007819 26.152227 
L 457.635076 26.957198 
L 457.600942 27.523657 
L 457.780895 28.023184 
L 458.154826 28.462425 
L 458.864165 28.940442 
L 460.022093 29.432058 
L 461.73775 29.913514 
L 464.157101 30.334212 
L 466.733296 30.550277 
L 469.843112 30.582066 
L 474.158816 30.367149 
L 479.978746 29.835513 
L 506.106924 27.16673 
L 513.083223 26.772491 
L 517.716706 26.677367 
L 522.484446 26.792441 
L 525.564129 27.04522 
L 528.361364 27.488167 
L 528.361364 27.488167 
" clip-path="url(#p795a136ced)" style="fill: none; stroke: #000000; stroke-width: 0.5; stroke-linecap: square"/>
   </g>
  </g>
  <g id="axes_7">
   <g id="line2d_7">
    <path d="M 617.011364 27.395525 
L 616.871234 27.294445 
L 615.747568 26.980569 
L 611.222003 26.064365 
L 605.04253 25.045519 
L 596.555267 23.906025 
L 586.684294 22.851473 
L 577.903426 22.149201 
L 571.549255 21.84489 
L 566.044435 21.80421 
L 561.345647 22.014529 
L 557.413137 22.439756 
L 554.202558 23.026188 
L 551.656274 23.711231 
L 549.377088 24.575065 
L 547.817969 25.39575 
L 546.737259 26.212273 
L 546.314197 26.760157 
L 546.253035 27.175527 
L 546.469969 27.487897 
L 546.982523 27.767118 
L 548.078583 28.066303 
L 549.476877 28.226508 
L 551.577883 28.233809 
L 557.471104 27.929636 
L 572.789144 27.170693 
L 584.135048 26.791785 
L 594.435689 26.671141 
L 603.944341 26.762913 
L 611.874244 27.047032 
L 617.011364 27.395525 
L 617.011364 27.395525 
" clip-path="url(#p840e0e140d)" style="fill: none; stroke: #000000; stroke-width: 0.5; stroke-linecap: square"/>
   </g>
  </g>
  <g id="axes_8">
   <g id="line2d_8">
    <path d="M 705.661364 27.811415 
L 703.207806 26.64299 
L 700.238704 25.556149 
L 695.396639 24.118346 
L 690.500947 22.91821 
L 684.245688 21.654231 
L 678.460148 20.716042 
L 671.938246 19.917825 
L 666.145698 19.467575 
L 660.970584 19.320904 
L 656.309955 19.448504 
L 652.104399 19.822344 
L 648.340735 20.407423 
L 645.033662 21.159741 
L 642.203304 22.02925 
L 639.86006 22.965553 
L 637.999359 23.923887 
L 636.603093 24.869309 
L 635.643283 25.777858 
L 635.085092 26.634684 
L 634.901037 27.276436 
L 634.926418 27.874894 
L 635.138368 28.425656 
L 635.631746 29.039441 
L 636.343443 29.561068 
L 637.449289 30.054998 
L 638.82122 30.402294 
L 640.809998 30.636335 
L 643.766525 30.719974 
L 649.469034 30.606239 
L 660.658785 30.136124 
L 703.40586 27.962346 
L 705.661364 27.811415 
L 705.661364 27.811415 
" clip-path="url(#p7f30c98d10)" style="fill: none; stroke: #000000; stroke-width: 0.5; stroke-linecap: square"/>
   </g>
  </g>
  <g id="axes_9">
   <g id="line2d_9">
    <path d="M 85.111364 48.669445 
L 84.902811 48.458222 
L 83.855249 48.108462 
L 80.023545 47.338906 
L 73.292031 46.231751 
L 67.118987 45.461351 
L 60.734444 44.889425 
L 52.948893 44.43136 
L 44.40233 44.160299 
L 35.89814 44.131495 
L 29.048417 44.3504 
L 23.120142 44.784755 
L 18.192843 45.379321 
L 15.673272 45.873693 
L 14.683942 46.25905 
L 14.358842 46.607159 
L 14.379201 46.905306 
L 14.678637 47.255455 
L 15.324559 47.627174 
L 16.548803 48.028589 
L 18.529356 48.417533 
L 22.423916 48.916657 
L 27.756276 49.372672 
L 34.547308 49.720036 
L 40.953335 49.846965 
L 47.953876 49.761556 
L 55.248733 49.422069 
L 65.224365 48.668599 
L 73.897924 48.062757 
L 77.792754 47.956738 
L 81.603622 48.100993 
L 83.990275 48.420929 
L 85.111364 48.669445 
L 85.111364 48.669445 
" clip-path="url(#pb4a9f07f81)" style="fill: none; stroke: #000000; stroke-width: 0.5; stroke-linecap: square"/>
   </g>
  </g>
  <g id="axes_10">
   <g id="line2d_10">
    <path d="M 173.761364 49.053043 
L 172.173831 48.733985 
L 144.740565 44.420303 
L 139.423692 43.833947 
L 134.540645 43.480571 
L 130.059504 43.3404 
L 124.983614 43.419235 
L 120.467509 43.720431 
L 116.510673 44.182291 
L 112.515318 44.870971 
L 109.338096 45.62874 
L 106.59563 46.508786 
L 104.544008 47.409312 
L 103.406595 48.136643 
L 103.036851 48.57244 
L 103.004158 48.885205 
L 103.202959 49.173805 
L 103.73018 49.510319 
L 104.901762 49.949926 
L 106.615816 50.329451 
L 108.623975 50.546373 
L 111.653124 50.623841 
L 117.458021 50.499799 
L 129.780425 50.024347 
L 158.908275 48.677194 
L 165.6097 48.710501 
L 172.467707 48.97908 
L 173.761364 49.053043 
L 173.761364 49.053043 
" clip-path="url(#p2543dfdd92)" style="fill: none; stroke: #000000; stroke-width: 0.5; stroke-linecap: square"/>
   </g>
  </g>
  <g id="axes_11">
   <g id="line2d_11">
    <path d="M 262.411364 47.253424 
L 260.776388 47.016454 
L 240.248241 44.824123 
L 223.180744 42.805009 
L 217.568063 42.357976 
L 212.720835 42.173646 
L 208.53347 42.218228 
L 204.253989 42.506576 
L 200.68103 42.976908 
L 197.744366 43.566664 
L 195.409122 44.228369 
L 193.658936 44.924094 
L 192.475594 45.623022 
L 191.896839 46.191381 
L 191.652457 46.73849 
L 191.698191 47.261521 
L 191.985448 47.761324 
L 192.585574 48.334289 
L 193.568941 48.971584 
L 195.042093 49.662903 
L 196.986907 50.312752 
L 199.25564 50.837915 
L 202.264044 51.297671 
L 206.197884 51.641478 
L 210.389797 51.786101 
L 215.3368 51.735442 
L 220.970995 51.445917 
L 227.203989 50.898574 
L 235.206845 49.964933 
L 248.332267 48.406368 
L 255.520377 47.77891 
L 262.411364 47.253424 
L 262.411364 47.253424 
" clip-path="url(#p2543743782)" style="fill: none; stroke: #000000; stroke-width: 0.5; stroke-linecap: square"/>
   </g>
  </g>
  <g id="axes_12">
   <g id="line2d_12">
    <path d="M 351.061364 50.204252 
L 350.803569 50.038415 
L 349.442597 49.616769 
L 344.434127 48.474091 
L 337.874616 47.188532 
L 329.253408 45.751509 
L 321.273169 44.680968 
L 314.351781 43.989364 
L 308.449468 43.626403 
L 303.365281 43.535138 
L 298.91163 43.665719 
L 294.976151 43.97584 
L 290.879539 44.532909 
L 287.462214 45.234898 
L 284.735349 46.020977 
L 282.695486 46.829817 
L 281.314642 47.605409 
L 280.538654 48.304616 
L 280.297751 48.809732 
L 280.366675 49.237338 
L 280.68649 49.587269 
L 281.326845 49.909979 
L 282.353855 50.166231 
L 284.127711 50.342677 
L 287.761738 50.417959 
L 297.714475 50.372894 
L 325.12472 50.057731 
L 351.061364 50.204252 
L 351.061364 50.204252 
" clip-path="url(#p97db0d5b6c)" style="fill: none; stroke: #000000; stroke-width: 0.5; stroke-linecap: square"/>
   </g>
  </g>
  <g id="axes_13">
   <g id="line2d_13">
    <path d="M 439.711364 48.882599 
L 438.412395 48.774344 
L 433.47233 47.926815 
L 422.378138 45.927755 
L 415.971001 44.968633 
L 409.903896 44.252154 
L 404.316206 43.781275 
L 398.088808 43.501142 
L 392.693513 43.50004 
L 388.054929 43.70477 
L 383.354257 44.129471 
L 378.886545 44.768639 
L 375.364041 45.496249 
L 372.682886 46.278235 
L 370.768182 47.075638 
L 369.55815 47.828794 
L 369.038682 48.393515 
L 368.942738 48.79125 
L 369.069657 49.062555 
L 369.46109 49.352358 
L 370.395195 49.691962 
L 372.169698 50.051725 
L 374.574948 50.316072 
L 378.224326 50.463144 
L 385.305481 50.474954 
L 395.65209 50.299826 
L 406.822719 49.87782 
L 429.390432 48.964346 
L 437.323648 48.845521 
L 439.711364 48.882599 
L 439.711364 48.882599 
" clip-path="url(#p30c87cff81)" style="fill: none; stroke: #000000; stroke-width: 0.5; stroke-linecap: square"/>
   </g>
  </g>
  <g id="axes_14">
   <g id="line2d_14">
    <path d="M 528.361364 49.531122 
L 524.108667 48.78343 
L 498.830307 44.570168 
L 491.938761 43.736072 
L 485.800052 43.254787 
L 481.437505 43.115274 
L 477.54618 43.174507 
L 474.097924 43.407247 
L 470.357766 43.896659 
L 467.186995 44.547754 
L 464.526552 45.297486 
L 461.948233 46.245763 
L 459.731738 47.314472 
L 458.477066 48.129979 
L 457.781317 48.817453 
L 457.588931 49.286384 
L 457.656838 49.597704 
L 457.974216 49.917941 
L 458.621993 50.221528 
L 459.969482 50.555991 
L 461.887511 50.782193 
L 464.523076 50.846353 
L 473.958411 50.686153 
L 486.83308 50.345148 
L 516.495096 49.387948 
L 523.41066 49.379931 
L 528.361364 49.531122 
L 528.361364 49.531122 
" clip-path="url(#p597aef3bb8)" style="fill: none; stroke: #000000; stroke-width: 0.5; stroke-linecap: square"/>
   </g>
  </g>
  <g id="axes_15">
   <g id="line2d_15">
    <path d="M 617.011364 49.877962 
L 611.841457 48.862242 
L 589.026444 44.692855 
L 582.647402 43.74405 
L 577.167535 43.17016 
L 573.274395 42.959283 
L 568.854336 42.964046 
L 564.811474 43.218642 
L 561.096437 43.675704 
L 557.723719 44.292343 
L 554.195228 45.183806 
L 551.309899 46.167414 
L 549.108785 47.160555 
L 547.577865 48.084061 
L 546.658318 48.876661 
L 546.299314 49.413615 
L 546.256081 49.83716 
L 546.481677 50.160477 
L 547.05367 50.445607 
L 548.258774 50.709988 
L 550.450203 50.924219 
L 553.914507 51.027861 
L 560.551145 50.960238 
L 572.206186 50.604811 
L 601.591046 49.513402 
L 608.512441 49.569762 
L 617.011364 49.877962 
L 617.011364 49.877962 
" clip-path="url(#pd6449cda8a)" style="fill: none; stroke: #000000; stroke-width: 0.5; stroke-linecap: square"/>
   </g>
  </g>
  <g id="axes_16">
   <g id="line2d_16">
    <path d="M 705.661364 50.388456 
L 705.217855 50.006895 
L 703.640803 49.19785 
L 701.406151 48.39294 
L 698.736447 47.637858 
L 694.233033 46.637527 
L 689.414701 45.800522 
L 682.862472 44.909799 
L 676.468358 44.244848 
L 669.024877 43.715538 
L 663.655078 43.535497 
L 658.854492 43.566429 
L 654.616473 43.788567 
L 650.905963 44.170011 
L 646.938288 44.813099 
L 643.633431 45.573688 
L 640.447769 46.556327 
L 638.043127 47.538466 
L 636.367533 48.453136 
L 635.360046 49.239049 
L 634.927729 49.842435 
L 634.916252 50.181348 
L 635.134804 50.371107 
L 635.594597 50.43515 
L 637.24526 50.285957 
L 642.208375 49.895097 
L 655.111339 48.138931 
L 660.953044 47.693988 
L 668.808493 47.344188 
L 676.163996 47.215357 
L 683.900144 47.309404 
L 690.595464 47.645052 
L 696.041347 48.165905 
L 699.996172 48.75943 
L 703.459694 49.542407 
L 705.141661 50.119908 
L 705.661364 50.388456 
L 705.661364 50.388456 
" clip-path="url(#p6116678453)" style="fill: none; stroke: #000000; stroke-width: 0.5; stroke-linecap: square"/>
   </g>
  </g>
 </g>
 <defs>
  <clipPath id="p6c758a18f4">
   <rect x="10.8" y="19.563527" width="77.85" height="10.913823"/>
  </clipPath>
  <clipPath id="pfe81692e66">
   <rect x="99.45" y="20.67624" width="77.85" height="8.688399"/>
  </clipPath>
  <clipPath id="p7f616ab895">
   <rect x="188.1" y="20.424979" width="77.85" height="9.190921"/>
  </clipPath>
  <clipPath id="p42757ff9e4">
   <rect x="276.75" y="21.205904" width="77.85" height="7.629069"/>
  </clipPath>
  <clipPath id="p088efe661b">
   <rect x="365.4" y="21.978316" width="77.85" height="6.084246"/>
  </clipPath>
  <clipPath id="p795a136ced">
   <rect x="454.05" y="18.889988" width="77.85" height="12.260901"/>
  </clipPath>
  <clipPath id="p840e0e140d">
   <rect x="542.7" y="21.465973" width="77.85" height="7.108931"/>
  </clipPath>
  <clipPath id="p7f30c98d10">
   <rect x="631.35" y="18.75095" width="77.85" height="12.538977"/>
  </clipPath>
  <clipPath id="pb4a9f07f81">
   <rect x="10.8" y="43.822802" width="77.85" height="6.313517"/>
  </clipPath>
  <clipPath id="p2543dfdd92">
   <rect x="99.45" y="42.970854" width="77.85" height="8.017415"/>
  </clipPath>
  <clipPath id="p2543743782">
   <rect x="188.1" y="41.684313" width="77.85" height="10.590496"/>
  </clipPath>
  <clipPath id="p97db0d5b6c">
   <rect x="276.75" y="43.189629" width="77.85" height="7.579864"/>
  </clipPath>
  <clipPath id="p30c87cff81">
   <rect x="365.4" y="43.120513" width="77.85" height="7.718095"/>
  </clipPath>
  <clipPath id="p597aef3bb8">
   <rect x="454.05" y="42.725617" width="77.85" height="8.507887"/>
  </clipPath>
  <clipPath id="pd6449cda8a">
   <rect x="542.7" y="42.522786" width="77.85" height="8.913549"/>
  </clipPath>
  <clipPath id="p6116678453">
   <rect x="631.35" y="43.178414" width="77.85" height="7.602295"/>
  </clipPath>
 </defs>
</svg>
