<?xml version="1.0" encoding="utf-8" standalone="no"?>
<!DOCTYPE svg PUBLIC "-//W3C//DTD SVG 1.1//EN"
  "http://www.w3.org/Graphics/SVG/1.1/DTD/svg11.dtd">
<svg xmlns:xlink="http://www.w3.org/1999/xlink" width="576pt" height="216pt" viewBox="0 0 576 216" xmlns="http://www.w3.org/2000/svg" version="1.1">
 <metadata>
  <rdf:RDF xmlns:dc="http://purl.org/dc/elements/1.1/" xmlns:cc="http://creativecommons.org/ns#" xmlns:rdf="http://www.w3.org/1999/02/22-rdf-syntax-ns#">
   <cc:Work>
    <dc:type rdf:resource="http://purl.org/dc/dcmitype/StillImage"/>
    <dc:date>2025-05-23T11:02:28.857360</dc:date>
    <dc:format>image/svg+xml</dc:format>
    <dc:creator>
     <cc:Agent>
      <dc:title>Matplotlib v3.10.0, https://matplotlib.org/</dc:title>
     </cc:Agent>
    </dc:creator>
   </cc:Work>
  </rdf:RDF>
 </metadata>
 <defs>
  <style type="text/css">*{stroke-linejoin: round; stroke-linecap: butt}</style>
 </defs>
 <g id="figure_1">
  <g id="patch_1">
   <path d="M 0 216 
L 576 216 
L 576 0 
L 0 0 
z
" style="fill: #ffffff"/>
  </g>
  <g id="axes_1">
   <g id="line2d_1">
    <path d="M 13.520455 43.730136 
L 22.108691 48.251357 
L 28.402505 51.827426 
L 34.853204 55.754389 
L 42.671254 60.80921 
L 47.642176 64.239958 
L 51.517566 67.157515 
L 54.743193 69.83486 
L 60.307261 74.594021 
L 61.911157 75.645517 
L 63.073427 76.174693 
L 64.159872 76.424043 
L 65.187486 76.385646 
L 65.923291 76.160386 
L 66.608602 75.771333 
L 67.188407 75.243642 
L 67.611961 74.598812 
L 67.862372 73.836927 
L 67.929545 72.955146 
L 67.801942 71.953287 
L 67.466666 70.833813 
L 66.909564 69.601742 
L 66.115358 68.264426 
L 64.659247 66.334057 
L 62.714236 64.261681 
L 60.35941 62.144158 
L 57.196425 59.668391 
L 53.969515 57.456237 
L 50.729245 55.495102 
L 46.88588 53.455849 
L 43.156859 51.741407 
L 39.57152 50.320848 
L 35.183646 48.827327 
L 30.268207 47.385852 
L 24.780648 46.004595 
L 19.211842 44.8026 
L 13.520455 43.730136 
L 13.520455 43.730136 
" clip-path="url(#p678e697b53)" style="fill: none; stroke: #1f77b4; stroke-width: 1.5; stroke-linecap: square"/>
   </g>
  </g>
  <g id="axes_2">
   <g id="line2d_2">
    <path d="M 84.170455 50.079517 
L 85.12032 52.024731 
L 86.05566 53.415782 
L 87.348013 54.925983 
L 88.837355 56.349558 
L 90.829462 57.930712 
L 92.991253 59.36693 
L 95.398216 60.710501 
L 98.325451 62.075484 
L 101.883829 63.472059 
L 106.154301 64.890813 
L 111.227332 66.322775 
L 117.165329 67.748625 
L 122.312355 68.782788 
L 126.978123 69.518642 
L 130.98117 69.95221 
L 134.213094 70.092467 
L 136.186867 69.998247 
L 137.582955 69.72355 
L 138.238459 69.400298 
L 138.552066 68.982352 
L 138.568158 68.66438 
L 138.299735 68.152827 
L 137.68127 67.616179 
L 136.324808 66.863258 
L 134.384949 66.066231 
L 131.195485 65.004402 
L 125.474769 63.38423 
L 107.305049 58.437892 
L 99.495702 55.975999 
L 89.76819 52.663884 
L 86.75021 51.416388 
L 84.951928 50.515399 
L 84.170455 50.079517 
L 84.170455 50.079517 
" clip-path="url(#pa31da53447)" style="fill: none; stroke: #1f77b4; stroke-width: 1.5; stroke-linecap: square"/>
   </g>
  </g>
  <g id="axes_3">
   <g id="line2d_3">
    <path d="M 154.820455 46.199201 
L 162.439043 50.043884 
L 167.386333 52.787745 
L 171.751534 55.435172 
L 175.577731 57.991462 
L 183.168067 63.265869 
L 188.212747 66.36584 
L 195.215969 70.374812 
L 199.010099 72.390989 
L 201.222098 73.337679 
L 202.733993 73.784715 
L 204.065584 73.967426 
L 205.251546 73.893578 
L 206.316188 73.567338 
L 207.273123 72.988666 
L 208.118654 72.161529 
L 208.778112 71.163615 
L 209.089328 70.364582 
L 209.224847 69.531367 
L 209.176251 68.661433 
L 208.934284 67.753152 
L 208.488832 66.805717 
L 207.828864 65.819039 
L 206.594161 64.44315 
L 204.924395 62.999902 
L 202.795629 61.495946 
L 199.701546 59.63747 
L 196.481062 57.947273 
L 192.576146 56.174851 
L 188.691918 54.68765 
L 184.890527 53.491674 
L 181.223743 52.588788 
L 170.084861 50.125898 
L 160.20638 47.629658 
L 154.820455 46.199201 
L 154.820455 46.199201 
" clip-path="url(#p359b90d884)" style="fill: none; stroke: #1f77b4; stroke-width: 1.5; stroke-linecap: square"/>
   </g>
  </g>
  <g id="axes_4">
   <g id="line2d_4">
    <path d="M 225.470455 51.071978 
L 228.480212 53.676739 
L 231.19848 55.671279 
L 234.015988 57.462786 
L 237.312254 59.274819 
L 240.758913 60.890996 
L 244.342638 62.333305 
L 248.616047 63.834528 
L 253.653521 65.384467 
L 259.535882 66.971407 
L 264.080497 68.024987 
L 267.493722 68.635597 
L 270.553424 68.992703 
L 273.222555 69.100005 
L 275.470728 68.960813 
L 276.865902 68.696372 
L 278.002814 68.295865 
L 278.875623 67.760132 
L 279.480483 67.089842 
L 279.813554 66.296957 
L 279.864464 65.442395 
L 279.623049 64.595998 
L 279.088208 63.784228 
L 278.264889 63.007196 
L 277.159618 62.26439 
L 275.261471 61.325912 
L 272.899877 60.444607 
L 270.102909 59.617422 
L 266.045 58.653697 
L 255.8024 56.615841 
L 236.658915 52.876492 
L 225.470455 51.071978 
L 225.470455 51.071978 
" clip-path="url(#p7da2c9cb40)" style="fill: none; stroke: #1f77b4; stroke-width: 1.5; stroke-linecap: square"/>
   </g>
  </g>
  <g id="axes_5">
   <g id="line2d_5">
    <path d="M 296.120455 53.377562 
L 296.639578 54.173184 
L 297.443018 54.946293 
L 298.918274 56.007029 
L 301.374687 57.453657 
L 304.716084 59.160925 
L 307.339341 60.233758 
L 310.654115 61.344283 
L 314.771779 62.49503 
L 319.815966 63.689391 
L 325.908939 64.927241 
L 331.461275 65.86636 
L 336.662741 66.497927 
L 340.370075 66.752003 
L 343.586217 66.780048 
L 346.244989 66.580032 
L 347.84135 66.279365 
L 349.077615 65.848991 
L 349.941287 65.28856 
L 350.305859 64.842938 
L 350.498582 64.349928 
L 350.516485 63.830476 
L 350.357456 63.306075 
L 350.020587 62.794296 
L 349.185969 62.056516 
L 347.965803 61.354971 
L 346.374791 60.690145 
L 343.709817 59.861956 
L 340.47607 59.102062 
L 335.741462 58.25171 
L 330.397598 57.516819 
L 318.352983 56.185359 
L 308.439207 55.244733 
L 303.145227 54.97148 
L 300.301038 54.720769 
L 298.251117 54.347401 
L 297.058423 53.960283 
L 296.408535 53.6005 
L 296.120455 53.377562 
L 296.120455 53.377562 
" clip-path="url(#p79df0641b8)" style="fill: none; stroke: #1f77b4; stroke-width: 1.5; stroke-linecap: square"/>
   </g>
  </g>
  <g id="axes_6">
   <g id="line2d_6">
    <path d="M 366.770455 25.257186 
L 370.954962 33.915852 
L 374.404119 40.491507 
L 377.300838 45.582218 
L 380.168064 50.218191 
L 383.016968 54.418583 
L 386.53234 59.183907 
L 391.746378 65.865741 
L 397.720384 73.151685 
L 404.382285 80.932486 
L 409.475201 86.575781 
L 413.101767 90.243145 
L 415.592274 92.467632 
L 417.620077 93.967865 
L 418.919044 94.661831 
L 419.708317 94.892566 
L 420.340711 94.877726 
L 420.809525 94.624839 
L 421.095042 94.150452 
L 421.179545 93.468052 
L 421.05882 92.578819 
L 420.575821 91.067112 
L 419.719686 89.174823 
L 418.113243 86.256396 
L 415.892985 82.695728 
L 412.398087 77.539447 
L 405.766797 68.250901 
L 398.931887 59.027991 
L 393.284522 51.75882 
L 389.036774 46.634456 
L 385.510494 42.752336 
L 381.566127 38.718871 
L 376.424947 33.805102 
L 370.771819 28.722182 
L 366.770455 25.257186 
L 366.770455 25.257186 
" clip-path="url(#p8afb7515d7)" style="fill: none; stroke: #1f77b4; stroke-width: 1.5; stroke-linecap: square"/>
   </g>
  </g>
  <g id="axes_7">
   <g id="line2d_7">
    <path d="M 437.420455 52.535014 
L 454.214305 57.748062 
L 461.886207 59.906228 
L 470.232061 61.963173 
L 478.039914 64.003098 
L 483.564218 65.661078 
L 489.803269 67.608445 
L 490.604013 67.606988 
L 491.207445 67.379077 
L 491.591106 67.019161 
L 491.807852 66.539501 
L 491.781553 65.964322 
L 491.547865 65.43158 
L 490.935594 64.67672 
L 489.893569 63.828713 
L 488.321703 62.891155 
L 486.120098 61.869029 
L 482.890052 60.62748 
L 478.183807 59.086579 
L 472.658731 57.529663 
L 466.012297 55.906121 
L 461.612109 55.029349 
L 456.560452 54.255006 
L 449.887172 53.489675 
L 442.25471 52.8542 
L 437.420455 52.535014 
L 437.420455 52.535014 
" clip-path="url(#pdaa809b50f)" style="fill: none; stroke: #1f77b4; stroke-width: 1.5; stroke-linecap: square"/>
   </g>
  </g>
  <g id="axes_8">
   <g id="line2d_8">
    <path d="M 508.070455 34.838388 
L 525.784969 53.554264 
L 536.256893 64.136785 
L 546.508377 74.635014 
L 551.555709 79.727611 
L 554.195275 82.099979 
L 556.4579 83.82024 
L 558.016606 84.730939 
L 559.363992 85.229659 
L 560.240436 85.333595 
L 561.004047 85.205703 
L 561.648202 84.851785 
L 562.133937 84.305226 
L 562.41556 83.604471 
L 562.474082 82.763459 
L 562.306495 81.781374 
L 561.909364 80.657367 
L 561.015611 78.936747 
L 559.694878 76.961394 
L 557.933509 74.730546 
L 555.715729 72.243802 
L 552.357784 68.834381 
L 546.714003 63.483952 
L 540.726313 58.128714 
L 535.222395 53.495683 
L 530.22588 49.552548 
L 524.987944 45.724047 
L 519.063903 41.698856 
L 512.875316 37.758327 
L 508.070455 34.838388 
L 508.070455 34.838388 
" clip-path="url(#p6a22bc98d7)" style="fill: none; stroke: #1f77b4; stroke-width: 1.5; stroke-linecap: square"/>
   </g>
  </g>
  <g id="axes_9">
   <g id="line2d_9">
    <path d="M 13.520455 144.377417 
L 21.871591 148.525217 
L 27.512657 151.085913 
L 32.695913 153.192725 
L 39.703738 155.970749 
L 46.627683 158.992202 
L 54.372741 162.639459 
L 60.73283 165.590269 
L 63.971522 166.84566 
L 65.973765 167.375626 
L 66.920918 167.447364 
L 67.561492 167.292991 
L 67.839085 167.033611 
L 67.929545 166.678889 
L 67.817527 166.260037 
L 67.342872 165.620375 
L 66.4936 164.888442 
L 64.899097 163.844779 
L 62.190588 162.406479 
L 58.593658 160.770524 
L 51.994216 158.088726 
L 35.213461 151.278087 
L 30.11229 149.225971 
L 25.598201 147.670331 
L 20.643412 146.190144 
L 15.353088 144.81841 
L 13.520455 144.377417 
L 13.520455 144.377417 
" clip-path="url(#p8dd82261e9)" style="fill: none; stroke: #1f77b4; stroke-width: 1.5; stroke-linecap: square"/>
   </g>
  </g>
  <g id="axes_10">
   <g id="line2d_10">
    <path d="M 84.170455 129.397977 
L 89.33363 134.994458 
L 93.442091 139.816716 
L 97.19374 144.5947 
L 103.837749 153.347421 
L 107.633681 157.740186 
L 112.0978 162.568636 
L 118.057634 168.671681 
L 122.86994 173.352528 
L 126.536452 176.641967 
L 129.7623 179.219763 
L 132.010717 180.750089 
L 133.95371 181.79452 
L 135.206053 182.253182 
L 136.280048 182.430039 
L 137.173895 182.322827 
L 137.879451 181.936834 
L 138.35945 181.307521 
L 138.571727 180.476611 
L 138.50088 179.460847 
L 138.148012 178.262248 
L 137.515111 176.883395 
L 136.240301 174.770654 
L 134.480536 172.354322 
L 132.246015 169.647642 
L 128.804374 165.880765 
L 124.019403 161.059724 
L 118.626618 155.934705 
L 113.688555 151.542872 
L 109.176001 147.845726 
L 105.62666 145.203173 
L 100.150913 141.502744 
L 95.183082 137.980061 
L 89.550726 133.711809 
L 84.170455 129.397977 
L 84.170455 129.397977 
" clip-path="url(#p5a1c61e59c)" style="fill: none; stroke: #1f77b4; stroke-width: 1.5; stroke-linecap: square"/>
   </g>
  </g>
  <g id="axes_11">
   <g id="line2d_11">
    <path d="M 154.820455 130.459272 
L 155.82496 134.047328 
L 156.7706 136.617417 
L 158.057057 139.439375 
L 159.537821 142.144411 
L 161.186147 144.714787 
L 162.977592 147.135974 
L 165.317728 149.898349 
L 169.566274 154.503324 
L 174.321638 159.340835 
L 180.162038 164.93229 
L 186.272994 170.451156 
L 189.97707 173.544966 
L 193.510829 176.183168 
L 196.783944 178.296483 
L 199.038996 179.527267 
L 201.103955 180.448236 
L 202.964781 181.054859 
L 204.610099 181.343599 
L 206.031195 181.311923 
L 206.850921 181.111969 
L 207.567126 180.76868 
L 208.176348 180.28587 
L 208.66326 179.684871 
L 209.009493 178.991893 
L 209.197657 178.232699 
L 209.220125 177.420137 
L 209.078208 176.555342 
L 208.561716 175.162006 
L 207.6886 173.656106 
L 206.46938 172.04131 
L 204.916556 170.321819 
L 202.352472 167.874537 
L 199.260908 165.262128 
L 194.745145 161.794317 
L 184.182522 153.861586 
L 178.003684 148.906748 
L 172.644424 144.326602 
L 166.546429 139.040229 
L 162.398672 135.829453 
L 157.097223 132.034739 
L 154.820455 130.459272 
L 154.820455 130.459272 
" clip-path="url(#p3913adb1e5)" style="fill: none; stroke: #1f77b4; stroke-width: 1.5; stroke-linecap: square"/>
   </g>
  </g>
  <g id="axes_12">
   <g id="line2d_12">
    <path d="M 225.470455 152.510618 
L 231.09096 153.713319 
L 236.691879 154.6614 
L 266.767709 159.038408 
L 270.649063 159.303238 
L 273.314857 159.301598 
L 275.556682 159.111416 
L 277.349612 158.733673 
L 278.387893 158.327726 
L 279.156594 157.816962 
L 279.651381 157.201532 
L 279.869156 156.494164 
L 279.806301 155.761386 
L 279.460471 155.079706 
L 278.832952 154.478171 
L 277.927845 153.957035 
L 276.750876 153.516103 
L 274.771587 153.052428 
L 272.344017 152.729941 
L 268.720536 152.523727 
L 264.506163 152.532748 
L 243.615513 153.006424 
L 236.860668 152.811946 
L 225.470455 152.510618 
L 225.470455 152.510618 
" clip-path="url(#pa61ad0b0ac)" style="fill: none; stroke: #1f77b4; stroke-width: 1.5; stroke-linecap: square"/>
   </g>
  </g>
  <g id="axes_13">
   <g id="line2d_13">
    <path d="M 296.120455 148.569233 
L 299.607595 150.711917 
L 303.676725 152.903306 
L 309.173444 155.582185 
L 312.375587 156.899864 
L 316.295197 158.222462 
L 321.025849 159.54571 
L 326.668406 160.865159 
L 333.190548 162.134686 
L 337.711347 162.806435 
L 341.668297 163.17758 
L 344.969491 163.249276 
L 347.090905 163.092383 
L 348.72055 162.745999 
L 349.607943 162.362287 
L 350.201949 161.872619 
L 350.498202 161.285346 
L 350.489513 160.643685 
L 350.170012 159.997284 
L 349.540568 159.365042 
L 348.606949 158.747156 
L 346.903034 157.9454 
L 344.697592 157.168432 
L 341.28434 156.230925 
L 336.329008 155.15273 
L 328.070527 153.662957 
L 315.957758 151.659457 
L 310.424521 150.965001 
L 304.512806 150.289133 
L 300.451998 149.596713 
L 297.07418 148.822245 
L 296.120455 148.569233 
L 296.120455 148.569233 
" clip-path="url(#pb55065a34b)" style="fill: none; stroke: #1f77b4; stroke-width: 1.5; stroke-linecap: square"/>
   </g>
  </g>
  <g id="axes_14">
   <g id="line2d_14">
    <path d="M 366.770455 119.644526 
L 372.607362 130.417935 
L 376.848162 137.707326 
L 380.422861 143.406265 
L 383.899009 148.49548 
L 390.72752 157.810744 
L 400.586274 171.438454 
L 410.145264 184.707227 
L 412.702346 187.778915 
L 414.498735 189.640754 
L 416.093143 190.987864 
L 417.164855 191.666565 
L 418.135131 192.064465 
L 419.007019 192.18349 
L 419.780008 192.025961 
L 420.423443 191.611789 
L 420.886061 190.972409 
L 421.134948 190.126099 
L 421.165062 189.071919 
L 420.972658 187.806898 
L 420.553012 186.327503 
L 419.629974 184.014305 
L 418.276404 181.301199 
L 416.472887 178.174904 
L 413.566253 173.678555 
L 408.874743 166.943946 
L 402.380834 157.983603 
L 395.25763 148.553435 
L 390.411679 142.432188 
L 386.890536 138.393263 
L 382.9115 134.214314 
L 378.463215 129.888587 
L 373.385422 125.28093 
L 366.770455 119.644526 
L 366.770455 119.644526 
" clip-path="url(#p96a7553f8d)" style="fill: none; stroke: #1f77b4; stroke-width: 1.5; stroke-linecap: square"/>
   </g>
  </g>
  <g id="axes_15">
   <g id="line2d_15">
    <path d="M 437.420455 131.790001 
L 447.788855 143.979536 
L 456.151035 153.863121 
L 459.919789 157.804271 
L 465.023008 162.7875 
L 471.026564 168.321029 
L 475.873564 172.533443 
L 479.579684 175.439271 
L 482.232546 177.267378 
L 484.592397 178.641889 
L 486.647437 179.553598 
L 487.982977 179.929206 
L 489.13874 180.038015 
L 490.112486 179.878273 
L 490.90063 179.45131 
L 491.473446 178.790133 
L 491.783875 177.94926 
L 491.803718 176.962922 
L 491.53245 175.834807 
L 490.972417 174.566773 
L 490.126715 173.161217 
L 488.56149 171.078508 
L 486.506497 168.765431 
L 483.975264 166.23255 
L 480.182743 162.787171 
L 473.716066 157.315718 
L 467.196453 152.081864 
L 462.081753 148.245927 
L 457.553302 145.135666 
L 442.279251 135.127613 
L 437.420455 131.790001 
L 437.420455 131.790001 
" clip-path="url(#p2c352a1768)" style="fill: none; stroke: #1f77b4; stroke-width: 1.5; stroke-linecap: square"/>
   </g>
  </g>
  <g id="axes_16">
   <g id="line2d_16">
    <path d="M 508.070455 144.499796 
L 510.142373 146.619796 
L 512.520436 148.666088 
L 515.519124 150.941378 
L 519.534399 153.688341 
L 522.184529 155.258153 
L 525.415242 156.93743 
L 529.300242 158.731832 
L 533.920313 160.647982 
L 539.36214 162.692665 
L 544.343465 164.384689 
L 549.054976 165.754778 
L 553.200063 166.705459 
L 556.034294 167.156682 
L 558.39111 167.32822 
L 560.235443 167.216767 
L 561.266732 166.946049 
L 561.988077 166.514238 
L 562.392804 165.930227 
L 562.479545 165.479566 
L 562.414537 165.000266 
L 562.026948 164.255585 
L 561.29513 163.485376 
L 560.227417 162.690558 
L 558.300874 161.594634 
L 555.831152 160.460618 
L 552.045961 158.996188 
L 546.618111 157.183799 
L 528.865416 151.760793 
L 520.108197 149.201432 
L 516.097615 147.997307 
L 512.729875 146.766595 
L 509.889385 145.489021 
L 508.070455 144.499796 
L 508.070455 144.499796 
" clip-path="url(#p748d229fa7)" style="fill: none; stroke: #1f77b4; stroke-width: 1.5; stroke-linecap: square"/>
   </g>
  </g>
 </g>
 <defs>
  <clipPath id="p678e697b53">
   <rect x="10.8" y="42.09455" width="59.85" height="35.982883"/>
  </clipPath>
  <clipPath id="pa31da53447">
   <rect x="81.45" y="49.078869" width="59.85" height="22.014246"/>
  </clipPath>
  <clipPath id="p359b90d884">
   <rect x="152.1" y="44.810522" width="59.85" height="30.55094"/>
  </clipPath>
  <clipPath id="p7da2c9cb40">
   <rect x="222.75" y="50.170577" width="59.85" height="19.83083"/>
  </clipPath>
  <clipPath id="p79df0641b8">
   <rect x="293.4" y="52.706719" width="59.85" height="14.758545"/>
  </clipPath>
  <clipPath id="p8afb7515d7">
   <rect x="364.05" y="21.774306" width="59.85" height="76.623373"/>
  </clipPath>
  <clipPath id="pdaa809b50f">
   <rect x="434.7" y="51.779916" width="59.85" height="16.612151"/>
  </clipPath>
  <clipPath id="p6a22bc98d7">
   <rect x="505.35" y="32.313628" width="59.85" height="55.544728"/>
  </clipPath>
  <clipPath id="p8dd82261e9">
   <rect x="10.8" y="143.223758" width="59.85" height="25.380501"/>
  </clipPath>
  <clipPath id="p5a1c61e59c">
   <rect x="81.45" y="126.746374" width="59.85" height="58.335268"/>
  </clipPath>
  <clipPath id="p3913adb1e5">
   <rect x="152.1" y="127.913798" width="59.85" height="56.00042"/>
  </clipPath>
  <clipPath id="pa61ad0b0ac">
   <rect x="222.75" y="152.160763" width="59.85" height="7.50649"/>
  </clipPath>
  <clipPath id="pb55065a34b">
   <rect x="293.4" y="147.834755" width="59.85" height="16.158506"/>
  </clipPath>
  <clipPath id="p96a7553f8d">
   <rect x="364.05" y="116.017578" width="59.85" height="79.79286"/>
  </clipPath>
  <clipPath id="p2c352a1768">
   <rect x="434.7" y="129.377601" width="59.85" height="53.072815"/>
  </clipPath>
  <clipPath id="p748d229fa7">
   <rect x="505.35" y="143.358375" width="59.85" height="25.111266"/>
  </clipPath>
 </defs>
</svg>
