<?xml version="1.0" encoding="utf-8" standalone="no"?>
<!DOCTYPE svg PUBLIC "-//W3C//DTD SVG 1.1//EN"
  "http://www.w3.org/Graphics/SVG/1.1/DTD/svg11.dtd">
<svg xmlns:xlink="http://www.w3.org/1999/xlink" width="576pt" height="216pt" viewBox="0 0 576 216" xmlns="http://www.w3.org/2000/svg" version="1.1">
 <metadata>
  <rdf:RDF xmlns:dc="http://purl.org/dc/elements/1.1/" xmlns:cc="http://creativecommons.org/ns#" xmlns:rdf="http://www.w3.org/1999/02/22-rdf-syntax-ns#">
   <cc:Work>
    <dc:type rdf:resource="http://purl.org/dc/dcmitype/StillImage"/>
    <dc:date>2025-05-23T11:08:33.358722</dc:date>
    <dc:format>image/svg+xml</dc:format>
    <dc:creator>
     <cc:Agent>
      <dc:title>Matplotlib v3.10.0, https://matplotlib.org/</dc:title>
     </cc:Agent>
    </dc:creator>
   </cc:Work>
  </rdf:RDF>
 </metadata>
 <defs>
  <style type="text/css">*{stroke-linejoin: round; stroke-linecap: butt}</style>
 </defs>
 <g id="figure_1">
  <g id="patch_1">
   <path d="M 0 216 
L 576 216 
L 576 0 
L 0 0 
z
" style="fill: #ffffff"/>
  </g>
  <g id="axes_1">
   <g id="line2d_1">
    <path d="M 13.520455 71.565676 
L 22.796483 73.677 
L 29.166425 75.345326 
L 33.983665 76.615547 
L 37.305004 77.231637 
L 41.022784 77.714038 
L 45.879742 78.09944 
L 51.31739 78.283129 
L 56.140437 78.226978 
L 59.655698 77.945761 
L 62.038686 77.56189 
L 64.028109 77.041228 
L 65.615184 76.387135 
L 66.537399 75.81064 
L 67.227543 75.161468 
L 67.68433 74.440284 
L 67.90718 73.65039 
L 67.89668 72.831439 
L 67.654355 72.047437 
L 67.181919 71.3376 
L 66.481064 70.704381 
L 65.553873 70.14712 
L 63.970004 69.520756 
L 61.99557 69.025246 
L 59.639212 68.657282 
L 56.172078 68.370572 
L 51.421513 68.249324 
L 44.640824 68.30811 
L 39.386044 68.554273 
L 34.811373 68.998591 
L 31.323033 69.555713 
L 26.025635 70.455753 
L 20.879927 71.070832 
L 16.053904 71.439168 
L 13.520455 71.565676 
L 13.520455 71.565676 
" clip-path="url(#p6ab8b5186e)" style="fill: none; stroke: #1f77b4; stroke-width: 1.5; stroke-linecap: square"/>
   </g>
  </g>
  <g id="axes_2">
   <g id="line2d_2">
    <path d="M 84.170455 74.421368 
L 93.823982 74.525526 
L 101.604897 74.834857 
L 110.225154 75.409136 
L 120.568712 76.280826 
L 125.301266 76.890287 
L 130.271416 77.775335 
L 133.51131 78.275949 
L 135.028787 78.330512 
L 136.254267 78.155924 
L 137.057244 77.836664 
L 137.71425 77.34564 
L 138.219496 76.678015 
L 138.52368 75.891306 
L 138.562247 75.061835 
L 138.397432 74.421368 
L 137.900208 73.54761 
L 137.063628 72.663508 
L 135.863097 71.789396 
L 134.273364 70.95184 
L 132.267741 70.182227 
L 129.850378 69.516049 
L 126.540152 68.879656 
L 123.210343 68.465966 
L 119.273895 68.226673 
L 115.460623 68.226892 
L 111.826712 68.428089 
L 107.84954 68.873487 
L 103.150563 69.651809 
L 97.880788 70.753241 
L 91.979509 72.211927 
L 86.401 73.767546 
L 84.170455 74.421368 
L 84.170455 74.421368 
" clip-path="url(#p617ade22a4)" style="fill: none; stroke: #1f77b4; stroke-width: 1.5; stroke-linecap: square"/>
   </g>
  </g>
  <g id="axes_3">
   <g id="line2d_3">
    <path d="M 154.820455 71.784624 
L 167.164615 73.422172 
L 200.045806 78.042317 
L 202.813772 78.160796 
L 204.657155 78.050452 
L 206.182414 77.750623 
L 207.397208 77.255889 
L 208.107493 76.75426 
L 208.646705 76.13905 
L 209.014719 75.409509 
L 209.206257 74.592122 
L 209.208313 73.758098 
L 209.008898 72.969667 
L 208.603881 72.239086 
L 207.990945 71.567327 
L 207.16775 70.955853 
L 205.739032 70.237814 
L 203.926719 69.636549 
L 201.72506 69.1596 
L 199.128328 68.815963 
L 195.456594 68.563413 
L 188.958743 68.382158 
L 183.077618 68.438615 
L 177.324229 68.727415 
L 172.16476 69.212429 
L 165.414535 70.066607 
L 157.893831 71.246619 
L 154.820455 71.784624 
L 154.820455 71.784624 
" clip-path="url(#p85a9a85aa3)" style="fill: none; stroke: #1f77b4; stroke-width: 1.5; stroke-linecap: square"/>
   </g>
  </g>
  <g id="axes_4">
   <g id="line2d_4">
    <path d="M 225.470455 75.251202 
L 232.708186 75.285141 
L 238.440433 75.561567 
L 244.111116 76.074534 
L 249.178198 76.530382 
L 254.413907 76.714169 
L 262.489562 76.72859 
L 276.972144 76.516923 
L 278.94193 76.249851 
L 279.685338 75.946352 
L 279.879545 75.629986 
L 279.789707 75.351447 
L 279.353278 74.929145 
L 278.29453 74.3249 
L 276.262485 73.503791 
L 273.387057 72.608457 
L 269.65297 71.683798 
L 265.182508 70.815872 
L 260.697042 70.193311 
L 256.504972 69.862513 
L 252.625707 69.799256 
L 249.074627 69.980339 
L 245.863813 70.384004 
L 241.853956 71.171637 
L 234.814737 72.771673 
L 228.319978 74.454034 
L 225.470455 75.251202 
L 225.470455 75.251202 
" clip-path="url(#pbd13201aae)" style="fill: none; stroke: #1f77b4; stroke-width: 1.5; stroke-linecap: square"/>
   </g>
  </g>
  <g id="axes_5">
   <g id="line2d_5">
    <path d="M 296.120455 71.820331 
L 316.400682 76.018448 
L 320.79222 76.68047 
L 325.837107 77.198634 
L 331.551338 77.552863 
L 337.051141 77.698629 
L 340.773301 77.607183 
L 343.921872 77.285799 
L 346.007773 76.868924 
L 347.702868 76.315498 
L 349.003239 75.629567 
L 349.717946 75.030053 
L 350.208712 74.35872 
L 350.475527 73.616568 
L 350.51974 72.828784 
L 350.344625 72.060641 
L 349.953371 71.368585 
L 349.347565 70.762827 
L 348.528467 70.242581 
L 347.497415 69.806785 
L 345.795458 69.354743 
L 343.722827 69.046483 
L 340.616618 68.855902 
L 336.959479 68.867833 
L 328.670004 69.195541 
L 320.387225 69.710945 
L 315.12576 70.239613 
L 307.146333 71.120231 
L 300.408433 71.612368 
L 296.120455 71.820331 
L 296.120455 71.820331 
" clip-path="url(#p7f19a102ca)" style="fill: none; stroke: #1f77b4; stroke-width: 1.5; stroke-linecap: square"/>
   </g>
  </g>
  <g id="axes_6">
   <g id="line2d_6">
    <path d="M 366.770455 70.62247 
L 371.001343 72.450156 
L 375.218413 73.974125 
L 380.794272 75.717649 
L 383.547335 76.421478 
L 386.751719 76.982421 
L 390.467309 77.364544 
L 394.732893 77.534207 
L 398.738627 77.487474 
L 403.172467 77.246251 
L 407.716779 76.789113 
L 411.77358 76.130987 
L 415.172645 75.318967 
L 417.375685 74.58721 
L 419.092568 73.801302 
L 420.304835 72.974512 
L 420.875342 72.333377 
L 421.152308 71.677373 
L 421.138321 71.027309 
L 420.843366 70.434544 
L 420.277942 69.942549 
L 419.447811 69.557573 
L 418.35873 69.276367 
L 416.516456 69.055157 
L 414.247845 68.997248 
L 410.851996 69.128669 
L 405.166101 69.61804 
L 391.733867 70.885682 
L 376.439051 72.044351 
L 373.391394 71.89429 
L 370.78525 71.55985 
L 368.687177 71.131473 
L 366.770455 70.62247 
L 366.770455 70.62247 
" clip-path="url(#p27091ca128)" style="fill: none; stroke: #1f77b4; stroke-width: 1.5; stroke-linecap: square"/>
   </g>
  </g>
  <g id="axes_7">
   <g id="line2d_7">
    <path d="M 437.420455 74.39338 
L 468.956033 77.704578 
L 473.215487 77.839945 
L 477.445668 77.744161 
L 481.469773 77.436755 
L 485.096353 76.938351 
L 488.317484 76.250581 
L 490.417304 75.587096 
L 491.564966 74.99303 
L 491.809942 74.696267 
L 491.806324 74.314815 
L 491.554918 73.718038 
L 491.036761 73.07126 
L 490.121516 72.313071 
L 488.674929 71.466643 
L 487.049346 70.75323 
L 485.080458 70.095787 
L 482.344106 69.453012 
L 479.400727 69.011997 
L 476.328286 68.763158 
L 472.570812 68.706122 
L 468.841629 68.900051 
L 465.128266 69.321463 
L 458.821213 70.283426 
L 450.365203 71.805819 
L 437.420455 74.39338 
L 437.420455 74.39338 
" clip-path="url(#pea32694f2e)" style="fill: none; stroke: #1f77b4; stroke-width: 1.5; stroke-linecap: square"/>
   </g>
  </g>
  <g id="axes_8">
   <g id="line2d_8">
    <path d="M 508.070455 72.405154 
L 518.123569 74.703238 
L 527.037231 76.53469 
L 530.849658 77.020951 
L 535.244726 77.346047 
L 540.26227 77.497539 
L 545.936331 77.460888 
L 550.883357 77.229136 
L 554.446124 76.847605 
L 557.391799 76.30053 
L 559.2817 75.749992 
L 560.742444 75.103232 
L 561.550397 74.556782 
L 562.108541 73.958752 
L 562.415074 73.310023 
L 562.470032 72.630119 
L 562.275807 71.969535 
L 561.835442 71.37189 
L 561.151368 70.844994 
L 560.226524 70.388111 
L 558.625568 69.886071 
L 556.614838 69.503599 
L 553.546955 69.187572 
L 549.894612 69.042623 
L 544.119169 69.072459 
L 535.916742 69.326225 
L 529.790822 69.737501 
L 525.705757 70.214975 
L 514.356442 71.790733 
L 508.070455 72.405154 
L 508.070455 72.405154 
" clip-path="url(#p0d35cc035c)" style="fill: none; stroke: #1f77b4; stroke-width: 1.5; stroke-linecap: square"/>
   </g>
  </g>
  <g id="axes_9">
   <g id="line2d_9">
    <path d="M 13.520455 139.636672 
L 20.744614 141.78445 
L 26.297266 143.186546 
L 31.505669 144.268532 
L 41.585131 146.034591 
L 53.47637 147.928708 
L 57.267879 148.327409 
L 59.916906 148.384588 
L 62.202228 148.202978 
L 63.671854 147.909557 
L 64.928269 147.481046 
L 65.968656 146.917193 
L 66.790706 146.217783 
L 67.392669 145.382679 
L 67.773221 144.412263 
L 67.928911 143.343944 
L 67.852291 142.276031 
L 67.537444 141.294042 
L 66.984022 140.414211 
L 66.193428 139.636672 
L 65.167575 138.96159 
L 63.908932 138.389188 
L 62.420502 137.919734 
L 60.084666 137.454489 
L 57.356536 137.173712 
L 54.262907 137.073515 
L 47.145432 137.146913 
L 33.967287 137.481231 
L 27.662041 137.817181 
L 22.566187 138.315898 
L 16.921319 139.083066 
L 13.520455 139.636672 
L 13.520455 139.636672 
" clip-path="url(#pde99e23a5b)" style="fill: none; stroke: #1f77b4; stroke-width: 1.5; stroke-linecap: square"/>
   </g>
  </g>
  <g id="axes_10">
   <g id="line2d_10">
    <path d="M 84.170455 140.657321 
L 85.868909 141.898062 
L 87.605901 142.862909 
L 89.730302 143.746026 
L 92.002252 144.441346 
L 94.774055 145.029484 
L 98.152078 145.467258 
L 102.881096 145.832058 
L 108.191825 146.004781 
L 113.842736 145.974634 
L 120.490447 145.708784 
L 125.254894 145.312373 
L 129.444039 144.745059 
L 132.932064 144.051259 
L 135.633289 143.268188 
L 137.184122 142.59665 
L 137.975733 142.073715 
L 138.441633 141.537621 
L 138.579545 140.99815 
L 138.395157 140.498242 
L 137.897758 140.086089 
L 137.094533 139.778593 
L 135.559965 139.526914 
L 133.516788 139.447216 
L 130.29442 139.569414 
L 125.549506 139.996802 
L 106.68551 141.989391 
L 101.815437 142.18029 
L 97.508265 142.135754 
L 92.067241 141.798713 
L 87.701869 141.33004 
L 85.030914 140.851421 
L 84.170455 140.657321 
L 84.170455 140.657321 
" clip-path="url(#pe4fc2c5cab)" style="fill: none; stroke: #1f77b4; stroke-width: 1.5; stroke-linecap: square"/>
   </g>
  </g>
  <g id="axes_11">
   <g id="line2d_11">
    <path d="M 154.820455 142.112169 
L 160.749887 144.030947 
L 165.019075 145.172702 
L 169.045343 146.011355 
L 172.375843 146.491331 
L 177.939829 147.00089 
L 191.172965 147.944649 
L 198.114334 148.312315 
L 201.404438 148.236526 
L 203.633665 147.98998 
L 205.497929 147.572386 
L 206.991576 146.979364 
L 207.865556 146.417336 
L 208.526362 145.75349 
L 208.972347 144.986985 
L 209.201025 144.128526 
L 209.205788 143.237644 
L 208.979542 142.383099 
L 208.51961 141.591455 
L 207.826194 140.863698 
L 206.900135 140.200823 
L 205.742838 139.604136 
L 203.8436 138.914381 
L 201.54319 138.349976 
L 198.849795 137.916718 
L 194.985456 137.56278 
L 188.714111 137.266983 
L 181.83287 137.146092 
L 176.008212 137.254326 
L 171.548844 137.542328 
L 168.596883 137.945671 
L 165.518859 138.567466 
L 162.325093 139.411393 
L 158.933465 140.516372 
L 154.820455 142.112169 
L 154.820455 142.112169 
" clip-path="url(#pd45f7ce6bc)" style="fill: none; stroke: #1f77b4; stroke-width: 1.5; stroke-linecap: square"/>
   </g>
  </g>
  <g id="axes_12">
   <g id="line2d_12">
    <path d="M 225.470455 144.302844 
L 239.575917 144.941029 
L 246.058834 145.030341 
L 251.646652 144.876794 
L 258.603412 144.712232 
L 264.742672 144.791293 
L 269.664174 145.076995 
L 278.48309 145.741334 
L 279.380641 145.534451 
L 279.72895 145.276462 
L 279.876129 144.928187 
L 279.80428 144.521354 
L 279.495094 144.074943 
L 278.748704 143.468678 
L 277.56256 142.824135 
L 275.883669 142.165927 
L 273.647504 141.526399 
L 270.808493 140.94607 
L 266.980167 140.397903 
L 262.475075 139.98008 
L 257.436254 139.741196 
L 252.076526 139.7033 
L 247.570955 139.86196 
L 243.937879 140.220204 
L 239.966786 140.82372 
L 235.63908 141.682394 
L 230.593327 142.896886 
L 225.470455 144.302844 
L 225.470455 144.302844 
" clip-path="url(#pe76cfb3880)" style="fill: none; stroke: #1f77b4; stroke-width: 1.5; stroke-linecap: square"/>
   </g>
  </g>
  <g id="axes_13">
   <g id="line2d_13">
    <path d="M 296.120455 141.01121 
L 298.132375 142.168644 
L 300.094328 143.001093 
L 302.551797 143.776307 
L 305.568878 144.463182 
L 309.202712 145.035277 
L 314.321132 145.624838 
L 320.377923 146.08898 
L 327.155512 146.363278 
L 333.079887 146.40531 
L 336.937684 146.255429 
L 340.418059 145.938046 
L 343.454846 145.473944 
L 345.996501 144.881538 
L 348.001503 144.175861 
L 349.13363 143.579402 
L 349.936057 142.929556 
L 350.402038 142.22892 
L 350.529545 141.491493 
L 350.32648 140.783323 
L 350.013481 140.366046 
L 349.284477 139.849735 
L 348.250066 139.463706 
L 346.91919 139.204859 
L 344.703641 139.050389 
L 342.015629 139.102363 
L 338.055481 139.433961 
L 332.55857 140.172097 
L 321.012108 141.849669 
L 315.555252 142.402188 
L 311.188565 142.650298 
L 307.333419 142.648354 
L 303.177655 142.396533 
L 300.004969 141.985388 
L 297.467403 141.425151 
L 296.120455 141.01121 
L 296.120455 141.01121 
" clip-path="url(#pbc1408498b)" style="fill: none; stroke: #1f77b4; stroke-width: 1.5; stroke-linecap: square"/>
   </g>
  </g>
  <g id="axes_14">
   <g id="line2d_14">
    <path d="M 366.770455 143.701386 
L 377.177293 144.217531 
L 383.764533 144.328696 
L 392.05999 144.177314 
L 400.857703 144.171424 
L 409.52306 144.405668 
L 417.374082 144.593082 
L 419.920171 144.445987 
L 420.927595 144.178556 
L 421.172078 143.92199 
L 421.129584 143.701386 
L 420.767985 143.395219 
L 419.821552 143.007058 
L 417.952655 142.541963 
L 414.743829 142.023063 
L 410.400658 141.568526 
L 404.494782 141.188549 
L 396.924824 140.920374 
L 389.261857 140.878779 
L 384.170754 141.020403 
L 379.890086 141.384208 
L 375.272578 142.015057 
L 370.691768 142.850978 
L 366.770455 143.701386 
L 366.770455 143.701386 
" clip-path="url(#p8c703073f8)" style="fill: none; stroke: #1f77b4; stroke-width: 1.5; stroke-linecap: square"/>
   </g>
  </g>
  <g id="axes_15">
   <g id="line2d_15">
    <path d="M 437.420455 142.735456 
L 446.560137 143.300262 
L 455.323787 144.095106 
L 467.475242 145.220422 
L 479.009105 146.385502 
L 483.709271 146.76614 
L 486.894243 146.797712 
L 488.950658 146.585907 
L 490.202682 146.248005 
L 491.102934 145.753063 
L 491.545553 145.275873 
L 491.78588 144.714097 
L 491.815289 144.108136 
L 491.624172 143.505241 
L 491.208201 142.924075 
L 490.566485 142.366269 
L 489.359049 141.662629 
L 487.749794 141.011408 
L 485.740295 140.421977 
L 482.670207 139.790049 
L 479.003091 139.299841 
L 474.29774 138.908616 
L 469.185088 138.678866 
L 463.934475 138.669028 
L 459.313515 138.883385 
L 455.26848 139.280413 
L 450.197334 140.009878 
L 444.730041 141.025534 
L 440.144607 142.055878 
L 437.420455 142.735456 
L 437.420455 142.735456 
" clip-path="url(#pb6fae7f2f4)" style="fill: none; stroke: #1f77b4; stroke-width: 1.5; stroke-linecap: square"/>
   </g>
  </g>
  <g id="axes_16">
   <g id="line2d_16">
    <path d="M 508.070455 142.105474 
L 509.6884 143.366459 
L 511.388224 144.359623 
L 513.613748 145.395601 
L 516.437348 146.465493 
L 519.510554 147.409441 
L 521.755453 147.893571 
L 524.971174 148.335456 
L 528.834364 148.620249 
L 533.43555 148.741946 
L 539.867335 148.668915 
L 545.988882 148.376775 
L 550.685553 147.900926 
L 553.979499 147.364219 
L 556.795894 146.693057 
L 559.085096 145.890665 
L 560.431994 145.204309 
L 561.447252 144.446412 
L 562.121371 143.617601 
L 562.378075 143.026208 
L 562.479545 142.413578 
L 562.425863 141.799594 
L 562.217825 141.204673 
L 561.856673 140.645356 
L 561.031579 139.878709 
L 559.873605 139.198388 
L 558.393771 138.603691 
L 556.606301 138.093709 
L 553.775063 137.54356 
L 550.478543 137.138806 
L 545.796614 136.831383 
L 539.717649 136.718455 
L 531.753864 136.8136 
L 526.212609 137.102368 
L 522.356438 137.5249 
L 519.672437 138.020206 
L 516.653037 138.827349 
L 512.879243 140.036153 
L 509.876983 141.225939 
L 508.070455 142.105474 
L 508.070455 142.105474 
" clip-path="url(#p94af96f9c1)" style="fill: none; stroke: #1f77b4; stroke-width: 1.5; stroke-linecap: square"/>
   </g>
  </g>
 </g>
 <defs>
  <clipPath id="p6ab8b5186e">
   <rect x="10.8" y="67.740919" width="59.85" height="11.054756"/>
  </clipPath>
  <clipPath id="p617ade22a4">
   <rect x="81.45" y="67.692479" width="59.85" height="11.151636"/>
  </clipPath>
  <clipPath id="p85a9a85aa3">
   <rect x="152.1" y="67.886548" width="59.85" height="10.763498"/>
  </clipPath>
  <clipPath id="pbd13201aae">
   <rect x="222.75" y="69.444455" width="59.85" height="7.647683"/>
  </clipPath>
  <clipPath id="p7f19a102ca">
   <rect x="293.4" y="68.394931" width="59.85" height="9.746731"/>
  </clipPath>
  <clipPath id="p27091ca128">
   <rect x="364.05" y="68.570143" width="59.85" height="9.396308"/>
  </clipPath>
  <clipPath id="pea32694f2e">
   <rect x="434.7" y="68.239443" width="59.85" height="10.057708"/>
  </clipPath>
  <clipPath id="p0d35cc035c">
   <rect x="505.35" y="68.605668" width="59.85" height="9.325257"/>
  </clipPath>
  <clipPath id="pde99e23a5b">
   <rect x="10.8" y="136.504664" width="59.85" height="12.454078"/>
  </clipPath>
  <clipPath id="pe4fc2c5cab">
   <rect x="81.45" y="139.118767" width="59.85" height="7.225872"/>
  </clipPath>
  <clipPath id="pd45f7ce6bc">
   <rect x="152.1" y="136.587531" width="59.85" height="12.288344"/>
  </clipPath>
  <clipPath id="pe76cfb3880">
   <rect x="222.75" y="139.389551" width="59.85" height="6.684304"/>
  </clipPath>
  <clipPath id="pbc1408498b">
   <rect x="293.4" y="138.675871" width="59.85" height="8.111664"/>
  </clipPath>
  <clipPath id="p8c703073f8">
   <rect x="364.05" y="140.680485" width="59.85" height="4.102436"/>
  </clipPath>
  <clipPath id="pb6fae7f2f4">
   <rect x="434.7" y="138.234213" width="59.85" height="8.994981"/>
  </clipPath>
  <clipPath id="p94af96f9c1">
   <rect x="505.35" y="136.116054" width="59.85" height="13.231298"/>
  </clipPath>
 </defs>
</svg>
